<?xml version="1.0" standalone="no"?>
<!DOCTYPE svg PUBLIC "-//W3C//DTD SVG 20010904//EN"
 "http://www.w3.org/TR/2001/REC-SVG-20010904/DTD/svg10.dtd">
<svg version="1.0" xmlns="http://www.w3.org/2000/svg"
 width="700.000000pt" height="700.000000pt" viewBox="0 0 700.000000 700.000000"
 preserveAspectRatio="xMidYMid meet">
<metadata>
Created by potrace 1.11, written by Peter Selinger 2001-2013
</metadata>
<g transform="translate(0.000000,700.000000) scale(0.100000,-0.100000)"
fill="#000000" stroke="none">
<path d="M584 4960 c0 -199 3 -290 10 -291 58 -5 3465 -3 3476 2 13 6 15 47
14 286 -1 153 -2 281 -3 286 -1 4 -788 7 -1749 7 l-1748 0 0 -290z"/>
<path d="M591 4080 c-4 -3 -7 -133 -7 -290 l1 -285 1750 0 1749 0 1 283 c0
156 -2 287 -5 290 -6 8 -3478 10 -3489 2z"/>
<path d="M4671 4070 c-4 -8 -6 -270 -6 -582 1 -566 1 -568 -20 -569 -11 -1
-272 -2 -580 -3 l-560 -1 -3 -291 -2 -291 562 0 c310 -1 572 -2 584 -2 20 -1
20 -2 20 -558 -1 -307 0 -569 2 -583 l4 -25 286 0 287 1 5 584 5 584 570 1
c314 1 575 2 581 3 7 1 10 90 10 290 l-1 287 -580 1 -580 0 -3 582 c-1 320 -5
582 -10 583 -4 1 -132 2 -285 2 -239 2 -280 0 -286 -13z"/>
<path d="M584 2625 l0 -292 1165 1 1166 1 0 290 0 290 -1166 1 -1165 0 0 -291z"/>
</g>
</svg>
